<?xml version="1.0" encoding="UTF-8"?>
<!-- Generator: Adobe Illustrator 21.0.0, SVG Export Plug-In . SVG Version: 6.00 Build 0)  -->
<svg version="1.1" id="Layer_1" xmlns="http://www.w3.org/2000/svg" xmlns:xlink="http://www.w3.org/1999/xlink" x="0px" y="0px" viewBox="0 0 200 250" enable-background="new 0 0 200 250" xml:space="preserve">
<path fill="#FFFFFF" d="M125,0c2.8,0,5,2.2,5,5s-2.2,5-5,5s-5-2.2-5-5S122.2,0,125,0 M121.3,50V35h-7.5l6.5-19  c0.6-2,2.5-3.5,4.8-3.5s4.1,1.5,4.8,3.5l6.5,19h-7.5v15H121.3z"/>
<path fill="#FFFFFF" d="M25,0c2.8,0,5,2.2,5,5s-2.2,5-5,5s-5-2.2-5-5S22.2,0,25,0 M21.3,12.5h7.5c2.8,0,5,2.2,5,5v13.8H30V50H20  V31.3h-3.8V17.5C16.3,14.7,18.5,12.5,21.3,12.5z"/>
<path fill="#FFFFFF" d="M5.8,91.1L9,94.3l4.1-4.1L9.9,87 M22.7,100c0.7,0,4.5,0,4.5,0v-6.7h-4.5 M25,61.3c-7.5,0-13.6,6.1-13.6,13.7  S17.5,88.7,25,88.7S38.6,82.6,38.6,75C38.6,67.4,32.5,61.3,25,61.3 M43.2,77.3H50v-4.6h-6.8 M36.9,90.2l4.1,4.1l3.2-3.2L40.1,87   M44.2,58.9L41,55.7l-4.1,4.1l3.2,3.2 M27.3,50h-4.5v6.7h4.5 M6.8,72.7H0v4.6h6.8 M13.1,59.8L9,55.7l-3.2,3.2L9.9,63L13.1,59.8z"/>
<path fill="#FFFFFF" d="M106.4,88.8c7.8,11.7,23.5,14.7,35,6.8c2.1-1.5,4-3.2,5.6-5.3c-13.3,4.1-27.4-3.6-31.4-17.1  c-2.4-8-0.8-16.7,4.4-23.2c-13.3,4.1-20.9,18.3-16.9,31.8C103.8,84.3,104.9,86.7,106.4,88.8z"/>
<path fill="#FFFFFF" d="M25,100c-13.8,0-25,11.2-25,25s11.2,25,25,25s25-11.2,25-25S38.8,100,25,100 M12.5,118.8  c0-2,1.8-3.8,3.8-3.8s3.8,1.8,3.8,3.8s-1.8,3.8-3.8,3.8S12.5,120.8,12.5,118.8 M25,138.1c-4.4,0-8.2-1.8-10.5-4.5l3.5-3.6  c1.1,1.8,3.8,3.1,6.9,3.1s5.8-1.3,6.9-3.1l3.6,3.6C33.2,136.3,29.4,138.1,25,138.1 M33.8,122.5c-2,0-3.8-1.8-3.8-3.8  s1.8-3.8,3.8-3.8s3.8,1.8,3.8,3.8S35.8,122.5,33.8,122.5z"/>
<path fill="#FFFFFF" d="M125,100c-13.8,0-25,11.2-25,25s11.2,25,25,25s25-11.2,25-25S138.8,100,125,100 M112.5,118.8  c0-2,1.8-3.8,3.8-3.8s3.8,1.8,3.8,3.8s-1.8,3.8-3.8,3.8S112.5,120.8,112.5,118.8 M131.9,138.1c-1.1-1.8-3.8-3.1-6.9-3.1  s-5.8,1.3-6.9,3.1l-3.5-3.6c2.3-2.7,6.1-4.5,10.5-4.5s8.2,1.8,10.5,4.5L131.9,138.1 M133.8,122.5c-2,0-3.8-1.8-3.8-3.8  s1.8-3.8,3.8-3.8s3.8,1.8,3.8,3.8S135.8,122.5,133.8,122.5z"/>
<path fill="#FFFFFF" d="M38.1,150c-6.6,0-11.9,5.3-11.9,11.9v4.8H4.8c-2.6,0-4.8,2.1-4.8,4.8v23.8c0,2.6,2.1,4.8,4.8,4.8h28.6  c2.6,0,4.8-2.1,4.8-4.8v-23.8c0-2.6-2.1-4.8-4.8-4.8H31v-4.8c0-4,3.2-7.1,7.1-7.1s7.1,3.2,7.1,7.1v4.8H50v-4.8  C50,155.3,44.7,150,38.1,150 M19,178.6c2.6,0,4.8,2.1,4.8,4.8c0,2.6-2.1,4.8-4.8,4.8c-2.6,0-4.8-2.1-4.8-4.8  C14.3,180.7,16.4,178.6,19,178.6z"/>
<path fill="#FFFFFF" d="M124.3,188.1c2.6,0,4.8-2.1,4.8-4.8c0-2.6-2.1-4.8-4.8-4.8c-2.6,0-4.8,2.1-4.8,4.8S121.7,188.1,124.3,188.1   M138.6,166.7c2.6,0,4.8,2.1,4.8,4.8v23.8c0,2.6-2.1,4.8-4.8,4.8h-28.6c-2.6,0-4.8-2.1-4.8-4.8v-23.8c0-2.6,2.1-4.8,4.8-4.8h2.4  v-4.8c0-6.6,5.3-11.9,11.9-11.9s11.9,5.3,11.9,11.9v4.8H138.6 M124.3,154.8c-3.9,0-7.1,3.2-7.1,7.1v4.8h14.3v-4.8  C131.5,158,128.3,154.8,124.3,154.8z"/>
<path fill="#FFFFFF" d="M50,222.5c0-2.5-2-4.5-4.5-4.5H31.1l2.2-10.4c0-0.2,0.1-0.5,0.1-0.7c0-0.9-0.4-1.8-1-2.4l-2.4-2.4l-15,15  c-0.8,0.8-1.3,2-1.3,3.2v22.7c0,2.5,2,4.5,4.5,4.5h20.5c1.9,0,3.5-1.1,4.2-2.8l6.9-16c0.2-0.5,0.3-1.1,0.3-1.7V222.5 M0,247.5h9.1  v-27.3H0V247.5z"/>
<path fill="#FFFFFF" d="M140.9,229.3h9.1V202h-9.1 M131.8,202h-20.5c-1.9,0-3.5,1.1-4.2,2.8l-6.9,16c-0.2,0.5-0.3,1.1-0.3,1.7v4.5  c0,2.5,2,4.5,4.5,4.5h14.3l-2.2,10.4c0,0.2-0.1,0.5-0.1,0.7c0,1,0.4,1.8,1,2.4l2.4,2.4l15-15c0.8-0.8,1.3-2,1.3-3.2v-22.7  C136.4,204,134.3,202,131.8,202z"/>
<path fill="#B3B3B3" d="M75,0c2.8,0,5,2.2,5,5s-2.2,5-5,5s-5-2.2-5-5S72.2,0,75,0 M71.3,12.5h7.5c2.8,0,5,2.2,5,5v13.8H80V50H70  V31.3h-3.8V17.5C66.3,14.7,68.5,12.5,71.3,12.5z"/>
<path fill="#B3B3B3" d="M55.8,91.1l3.2,3.2l4.1-4.1L59.9,87 M72.7,100c0.7,0,4.5,0,4.5,0v-6.7h-4.5 M75,61.3  c-7.5,0-13.6,6.1-13.6,13.7S67.5,88.7,75,88.7S88.6,82.6,88.6,75C88.6,67.4,82.5,61.3,75,61.3 M93.2,77.3h6.8v-4.6h-6.8 M86.9,90.2  l4.1,4.1l3.2-3.2L90.1,87 M94.2,58.9L91,55.7l-4.1,4.1l3.2,3.2 M77.3,50h-4.5v6.7h4.5 M56.8,72.7H50v4.6h6.8 M63.1,59.8L59,55.7  l-3.2,3.2l4.1,4.1L63.1,59.8z"/>
<path fill="#B3B3B3" d="M75,100c-13.8,0-25,11.2-25,25s11.2,25,25,25s25-11.2,25-25S88.8,100,75,100 M62.5,118.8  c0-2,1.8-3.8,3.8-3.8s3.8,1.8,3.8,3.8s-1.8,3.8-3.8,3.8S62.5,120.8,62.5,118.8 M75,138.1c-4.4,0-8.2-1.8-10.5-4.5l3.5-3.6  c1.1,1.8,3.8,3.1,6.9,3.1s5.8-1.3,6.9-3.1l3.5,3.6C83.2,136.3,79.4,138.1,75,138.1 M83.8,122.5c-2,0-3.8-1.8-3.8-3.8  s1.8-3.8,3.8-3.8s3.8,1.8,3.8,3.8S85.8,122.5,83.8,122.5z"/>
<path fill="#B3B3B3" d="M88.1,150c-6.6,0-11.9,5.3-11.9,11.9v4.8H54.8c-2.6,0-4.8,2.1-4.8,4.8v23.8c0,2.6,2.1,4.8,4.8,4.8h28.6  c2.6,0,4.8-2.1,4.8-4.8v-23.8c0-2.6-2.1-4.8-4.8-4.8H81v-4.8c0-4,3.2-7.1,7.1-7.1s7.1,3.2,7.1,7.1v4.8h4.8v-4.8  C100,155.3,94.7,150,88.1,150 M69,178.6c2.6,0,4.8,2.1,4.8,4.8c0,2.6-2.1,4.8-4.8,4.8c-2.6,0-4.8-2.1-4.8-4.8  C64.3,180.7,66.4,178.6,69,178.6z"/>
<path fill="#B3B3B3" d="M100,222.5c0-2.5-2-4.5-4.5-4.5H81.1l2.2-10.4c0-0.2,0.1-0.5,0.1-0.7c0-0.9-0.4-1.8-1-2.4l-2.4-2.4l-15,15  c-0.8,0.8-1.3,2-1.3,3.2v22.7c0,2.5,2,4.5,4.5,4.5h20.5c1.9,0,3.5-1.1,4.2-2.8l6.9-16c0.2-0.5,0.3-1.1,0.3-1.7V222.5 M50,247.5h9.1  v-27.3H50V247.5z"/>
<path fill="#B3B3B3" d="M175,0c2.8,0,5,2.2,5,5s-2.2,5-5,5s-5-2.2-5-5S172.2,0,175,0 M171.3,50V35h-7.5l6.5-19  c0.6-2,2.5-3.5,4.8-3.5s4.1,1.5,4.8,3.5l6.5,19h-7.5v15H171.3z"/>
<path fill="#B3B3B3" d="M156.4,88.8c7.8,11.7,23.5,14.7,35,6.8c2.1-1.5,4-3.2,5.6-5.3c-13.3,4.1-27.4-3.6-31.4-17.1  c-2.4-8-0.8-16.7,4.4-23.2c-13.3,4.1-20.9,18.3-16.9,31.8C153.8,84.3,154.9,86.7,156.4,88.8z"/>
<path fill="#B3B3B3" d="M175,100c-13.8,0-25,11.2-25,25s11.2,25,25,25s25-11.2,25-25S188.8,100,175,100 M162.5,118.8  c0-2,1.8-3.8,3.8-3.8s3.8,1.8,3.8,3.8s-1.8,3.8-3.8,3.8S162.5,120.8,162.5,118.8 M181.9,138.1c-1.1-1.8-3.8-3.1-6.9-3.1  s-5.8,1.3-6.9,3.1l-3.6-3.6c2.3-2.7,6.1-4.5,10.5-4.5s8.2,1.8,10.5,4.5L181.9,138.1 M183.8,122.5c-2,0-3.8-1.8-3.8-3.8  s1.8-3.8,3.8-3.8s3.8,1.8,3.8,3.8S185.8,122.5,183.8,122.5z"/>
<path fill="#B3B3B3" d="M174.3,188.1c2.6,0,4.8-2.1,4.8-4.8c0-2.6-2.1-4.8-4.8-4.8c-2.6,0-4.8,2.1-4.8,4.8S171.7,188.1,174.3,188.1   M188.6,166.7c2.6,0,4.8,2.1,4.8,4.8v23.8c0,2.6-2.1,4.8-4.8,4.8h-28.6c-2.6,0-4.8-2.1-4.8-4.8v-23.8c0-2.6,2.1-4.8,4.8-4.8h2.4  v-4.8c0-6.6,5.3-11.9,11.9-11.9c6.6,0,11.9,5.3,11.9,11.9v4.8H188.6 M174.3,154.8c-3.9,0-7.1,3.2-7.1,7.1v4.8h14.3v-4.8  C181.5,158,178.3,154.8,174.3,154.8z"/>
<path fill="#B3B3B3" d="M190.9,229.3h9.1V202h-9.1 M181.8,202h-20.5c-1.9,0-3.5,1.1-4.2,2.8l-6.9,16c-0.2,0.5-0.3,1.1-0.3,1.7v4.5  c0,2.5,2,4.5,4.5,4.5h14.3l-2.2,10.4c0,0.2-0.1,0.5-0.1,0.7c0,1,0.4,1.8,1,2.4l2.4,2.4l15-15c0.8-0.8,1.3-2,1.3-3.2v-22.7  C186.4,204,184.3,202,181.8,202z"/>
</svg>